<svg xmlns="http://www.w3.org/2000/svg" width="21.863" height="21.863" viewBox="0 0 21.863 21.863">
  <path id="Path_2341" data-name="Path 2341" d="M4167.591,2413.348a4.691,4.691,0,0,1-3.557,1.634h-.128a16.511,16.511,0,0,1-16.058-16.058,4.7,4.7,0,0,1,1.642-3.7,4.426,4.426,0,0,1,3.676-1.022,4.112,4.112,0,0,1,.521.131,1.633,1.633,0,0,1,1.1,1.307l.736,4.67a1.661,1.661,0,0,1-.594,1.549c-.092.075-.188.146-.287.212a.59.59,0,0,0-.238.731,10.82,10.82,0,0,0,5.627,5.628.6.6,0,0,0,.737-.243c.051-.076.1-.148.16-.219a1.66,1.66,0,0,1,1.569-.6l4.756.791a1.617,1.617,0,0,1,1.3,1.135c.03.105.058.227.083.365A4.476,4.476,0,0,1,4167.591,2413.348Z" transform="translate(-4147.346 -2393.619)" fill="none" stroke="#f7fffc" stroke-width="1"/>
</svg>
