<svg xmlns="http://www.w3.org/2000/svg" width="34.852" height="29.204" viewBox="0 0 34.852 29.204">
  <path id="telegram" d="M610.378,337.531q13.632-5.97,18.177-7.873c8.659-3.62,10.456-4.249,11.63-4.27a2.049,2.049,0,0,1,1.208.365,1.345,1.345,0,0,1,.443.849,5.533,5.533,0,0,1,.05,1.234c-.469,4.956-2.5,16.983-3.532,22.535-.433,2.349-1.3,3.136-2.128,3.212-1.812.168-3.186-1.2-4.94-2.358-2.741-1.808-4.29-2.935-6.955-4.7-3.078-2.039-1.082-3.16.672-4.992.458-.478,8.436-7.773,8.587-8.435a.635.635,0,0,0-.146-.554.706.706,0,0,0-.643-.062q-.417.093-13.15,8.738a5.9,5.9,0,0,1-3.381,1.256,22.271,22.271,0,0,1-4.846-1.153c-1.948-.639-3.5-.976-3.366-2.06q.1-.847,2.319-1.732Z" transform="translate(-607.554 -324.888)" fill="none" stroke="#ebf0f0" stroke-width="1"/>
</svg>
