<svg width="93" height="28" viewBox="0 0 93 28" fill="none" xmlns="http://www.w3.org/2000/svg">
  <g clip-path="url(#clip0_2095_2)">
    <path d="M20.0439 1.86804C20.9348 1.87117 21.8123 2.08455 22.605 2.49097C23.119 2.79862 23.4955 3.29139 23.6577 3.86804C23.8607 4.86691 23.9431 5.88654 23.9028 6.90503V15.621C23.9314 17.08 23.8622 18.5393 23.6958 19.989C23.5368 20.9666 23.1473 21.8921 22.5591 22.689C21.82 23.6556 20.8392 24.4106 19.7158 24.8781C18.3817 25.4753 16.9333 25.7745 15.4717 25.755C13.7848 25.8402 12.1155 25.3805 10.71 24.444C9.62878 23.7283 8.85323 22.6351 8.53564 21.3781C8.21977 19.4137 8.09109 17.4237 8.15088 15.4349V7.37903C8.10428 6.03013 8.17138 4.67972 8.35107 3.34204C8.38797 3.10303 8.47683 2.87498 8.61182 2.67432C8.7468 2.47365 8.92436 2.30529 9.13184 2.18103C9.92374 1.91202 10.7618 1.80619 11.5957 1.87H12.106V1.00195H0.456055V1.87H1.04004C1.89216 1.7984 2.74933 1.91443 3.55176 2.20996C3.75842 2.34799 3.933 2.52916 4.06299 2.74097C4.19297 2.95278 4.27521 3.19025 4.30469 3.43701C4.46336 4.74498 4.52309 6.06306 4.48291 7.38V15.342L4.46484 17.964C4.38658 19.6665 4.73278 21.3617 5.47266 22.897C6.25417 24.2244 7.43219 25.2736 8.84082 25.897C10.6497 26.7201 12.6234 27.1173 14.6099 27.058C16.3465 27.0915 18.0729 26.7836 19.6909 26.152C21.0202 25.6489 22.1967 24.8104 23.106 23.718C23.857 22.8251 24.363 21.7524 24.5747 20.605C24.7762 18.9972 24.8607 17.377 24.8276 15.757V7.24805C24.7919 6.19415 24.8548 5.13922 25.0156 4.09705C25.1771 3.5052 25.5403 2.98816 26.042 2.63501C26.7932 2.13835 27.6732 1.8727 28.5737 1.87097V1.00305H20.0469L20.0439 1.86804Z" fill="#03414C"/>
    <path d="M47.271 22.168L37.917 1H30.146V1.86804H30.8408C31.6933 1.7965 32.5512 1.91252 33.354 2.20801C33.5604 2.34633 33.7343 2.5275 33.8643 2.73926C33.9942 2.95101 34.0771 3.18829 34.1069 3.43494C34.266 4.74287 34.3252 6.06111 34.2847 7.37805V18.509C34.3253 19.9594 34.2497 21.4107 34.0586 22.849C33.9022 23.6389 33.4564 24.3418 32.8086 24.8199C32.0349 25.3873 31.1052 25.7017 30.146 25.72V26.587H39.2729V25.72C38.2773 25.7108 37.312 25.3757 36.5249 24.766C35.9144 24.2763 35.5002 23.5835 35.3579 22.814C35.1993 21.4236 35.1368 20.024 35.1709 18.625V3.64502L45.354 26.5859H46.2378L56.3428 3.64502V19.9189C56.3855 21.2828 56.3262 22.6481 56.165 24.0031C56.1251 24.2622 56.0326 24.5105 55.8936 24.7328C55.7545 24.9551 55.5715 25.1467 55.356 25.296C54.6567 25.6325 53.8803 25.7762 53.1069 25.712H52.207V26.579H64.4067V25.712H63.271C62.4624 25.7892 61.6484 25.632 60.9268 25.259C60.7142 25.0898 60.5372 24.88 60.4062 24.642C60.2753 24.4039 60.1927 24.1421 60.1636 23.8719C60.0324 22.559 59.9827 21.2392 60.0146 19.92V7.37305C59.969 6.02416 60.036 4.6737 60.2148 3.33594C60.2517 3.09677 60.3409 2.86879 60.4761 2.66809C60.6113 2.46739 60.7888 2.29904 60.9966 2.17505C61.7888 1.90583 62.6277 1.79999 63.4619 1.86401H64.4028V0.995972H56.5708L47.271 22.168Z" fill="#03414C"/>
    <path d="M90.082 25.057C89.5561 24.5226 89.1387 23.8913 88.853 23.198L88.2432 21.75L87.6289 20.161C87.0908 20.4152 86.5241 20.6036 85.9409 20.722C85.3105 20.85 84.6655 20.8907 84.0239 20.843C84.4179 21.726 84.5239 21.954 84.5239 21.954C84.9019 22.7246 85.1864 23.5377 85.3711 24.376C85.3934 24.598 85.3436 24.8213 85.229 25.0128C85.1144 25.2043 84.941 25.3537 84.7349 25.439C83.9412 25.6657 83.115 25.7564 82.291 25.707V26.593H92.4209V25.707C91.5884 25.7796 90.7578 25.5487 90.082 25.057Z" fill="#03414C"/>
    <path d="M87.5493 16.856C86.5647 17.2926 85.5018 17.5251 84.4248 17.5394C83.3478 17.5536 82.279 17.3494 81.2832 16.939C79.9935 16.3517 78.6676 15.8467 77.314 15.4271C76.026 14.9922 74.6456 14.9072 73.314 15.181C72.8199 15.2829 72.3364 15.4299 71.8691 15.6201C70.6497 16.1136 69.5808 16.9179 68.769 17.9531C67.8781 19.0583 67.3078 20.3868 67.1201 21.794C68.0188 19.9593 69.5801 18.5338 71.4888 17.8054C73.3975 17.0769 75.5117 17.0995 77.4043 17.869C79.1703 18.544 80.2553 19.069 81.4043 19.388C82.5166 19.7164 83.6865 19.801 84.8345 19.6362C85.9824 19.4713 87.0813 19.0608 88.0562 18.4327C89.031 17.8045 89.8589 16.9735 90.4834 15.9963C91.1079 15.0191 91.5147 13.9185 91.6753 12.77C90.8622 14.602 89.3892 16.0608 87.5493 16.856Z" fill="#03414C"/>
    <path d="M71.0171 23.44C71.4783 21.7449 72.0494 20.0817 72.7271 18.461C72.3183 18.5478 71.9168 18.6668 71.5269 18.817C70.7706 20.8029 69.8529 22.7234 68.7822 24.559C68.3799 25.0874 67.7982 25.4508 67.147 25.581C66.8753 25.6397 66.5993 25.6774 66.3218 25.6939C66.1288 25.7069 65.9219 25.715 65.6919 25.715C65.6919 26.157 65.6812 26.582 65.6812 26.582H74.1812V25.7089C72.6562 25.7089 72.2938 25.537 71.7808 25.149C71.5246 24.9473 71.3216 24.6863 71.1885 24.3886C71.0554 24.0909 70.9966 23.7654 71.0171 23.44Z" fill="#03414C"/>
    <path d="M79.9121 1.86292L79.7881 1.573L79.6143 1.15894H78.895L78.1479 2.95093L77.7002 4.021L76.3999 7.13L76.0381 7.995L73.4829 14.115C73.8037 14.0743 74.1269 14.053 74.4502 14.051H74.4639L76.1641 9.92896L76.313 9.56702L77.8623 5.81702C77.8623 5.81702 80.2071 11.5279 82.1621 16.2589C83.4188 16.5979 84.7387 16.6299 86.0103 16.3519L79.9121 1.86292Z" fill="#03414C"/>
  </g>
  <defs>
    <clipPath id="clip0_2095_2">
      <rect width="93" height="28" fill="white"/>
    </clipPath>
  </defs>
</svg>
