<svg id="logo-white" xmlns="http://www.w3.org/2000/svg" width="121.421" height="26.168" viewBox="0 0 121.421 26.168">
  <path id="Path_12" data-name="Path 12" d="M6509.06,1403.649a7.462,7.462,0,0,1,2.578.4,2.447,2.447,0,0,1,1.421,1.076,5.67,5.67,0,0,1,.35,2.377v15.3l-15.112-20.018h-7.529v.868a7.591,7.591,0,0,1,2.646.283,1.857,1.857,0,0,1,.866,1.283,18.19,18.19,0,0,1,.271,3.943v13.565a14.262,14.262,0,0,1-.178,2.943,2.177,2.177,0,0,1-1.14,1.16,6.832,6.832,0,0,1-2.785.671v.867h9.522v-.867a6.256,6.256,0,0,1-3.048-.585,2.455,2.455,0,0,1-1.233-1.283,12.118,12.118,0,0,1-.217-2.905v-17.753l18.048,23.979h.81v-21.168a7.45,7.45,0,0,1,.255-2.33,2.312,2.312,0,0,1,1.186-1.179,6.722,6.722,0,0,1,2.549-.623v-.868h-9.259Z" transform="translate(-6490.447 -1402.781)" fill="#fff"/>
  <path id="Path_13" data-name="Path 13" d="M6581.059,1403.649a5.657,5.657,0,0,1,2.561.623,2.345,2.345,0,0,1,1.053,1.377,12.729,12.729,0,0,1,.245,3.037v8.716a32.682,32.682,0,0,1-.207,4.368,6.231,6.231,0,0,1-1.137,2.7,6.93,6.93,0,0,1-2.843,2.189,10.058,10.058,0,0,1-4.244.877,7.872,7.872,0,0,1-4.762-1.311,5.206,5.206,0,0,1-2.174-3.066,31.476,31.476,0,0,1-.385-5.943v-8.056a24.079,24.079,0,0,1,.2-4.037,1.646,1.646,0,0,1,.781-1.161,6.192,6.192,0,0,1,2.464-.311h.51v-.868h-11.65v.868h.584a5.851,5.851,0,0,1,2.512.34,1.721,1.721,0,0,1,.753,1.227,26.125,26.125,0,0,1,.178,3.943v7.962l-.018,2.622a10.276,10.276,0,0,0,1.008,4.933,7.369,7.369,0,0,0,3.368,3,12.992,12.992,0,0,0,5.769,1.161,13.269,13.269,0,0,0,5.081-.906,8.237,8.237,0,0,0,3.415-2.434,6.734,6.734,0,0,0,1.469-3.113,33.486,33.486,0,0,0,.253-4.848v-8.509a16.906,16.906,0,0,1,.188-3.151,2.637,2.637,0,0,1,1.026-1.462,4.607,4.607,0,0,1,2.532-.764v-.868h-8.527Z" transform="translate(-6532.015 -1402.781)" fill="#fff"/>
  <path id="Path_14" data-name="Path 14" d="M6650.2,1423.949l-9.354-21.168h-7.771v.868h.695a5.857,5.857,0,0,1,2.513.34,1.727,1.727,0,0,1,.753,1.227,26.032,26.032,0,0,1,.178,3.943v11.131a27.176,27.176,0,0,1-.226,4.34,3.229,3.229,0,0,1-1.25,1.971,4.653,4.653,0,0,1-2.663.9v.867h9.127v-.867a4.556,4.556,0,0,1-2.748-.954,3.263,3.263,0,0,1-1.167-1.952,30.423,30.423,0,0,1-.187-4.189v-14.98l10.183,22.941h.884l10.105-22.941V1421.7a27.33,27.33,0,0,1-.178,4.084,1.931,1.931,0,0,1-.809,1.293,4.356,4.356,0,0,1-2.249.416h-.9v.867h12.2v-.867H6666.2a4.23,4.23,0,0,1-2.344-.453,2.055,2.055,0,0,1-.763-1.387,31.961,31.961,0,0,1-.149-3.952v-12.547a24.271,24.271,0,0,1,.2-4.037,1.643,1.643,0,0,1,.782-1.161,6.189,6.189,0,0,1,2.465-.311h.941v-.868H6659.5Z" transform="translate(-6573.929 -1402.781)" fill="#fff"/>
  <path id="Path_15" data-name="Path 15" d="M6766.6,1453.765a5.8,5.8,0,0,1-1.229-1.859l-.61-1.448-.614-1.589a7.4,7.4,0,0,1-1.688.561,7.019,7.019,0,0,1-1.917.121c.394.883.5,1.111.5,1.111a10.753,10.753,0,0,1,.847,2.422,1.038,1.038,0,0,1-.636,1.063,7.308,7.308,0,0,1-2.444.268v.886h10.13v-.886A3.464,3.464,0,0,1,6766.6,1453.765Z" transform="translate(-6647.518 -1429.708)" fill="#fff"/>
  <path id="Path_16" data-name="Path 16" d="M6742.657,1435.177a7.968,7.968,0,0,1-6.266.083,33.557,33.557,0,0,0-3.969-1.512,7.674,7.674,0,0,0-4-.246,8.259,8.259,0,0,0-1.445.439,7.529,7.529,0,0,0-3.1,2.333,7.753,7.753,0,0,0-1.649,3.841,8.068,8.068,0,0,1,10.284-3.925c1.766.675,2.851,1.2,4,1.519a8.065,8.065,0,0,0,10.271-6.618A7.976,7.976,0,0,1,6742.657,1435.177Z" transform="translate(-6626.108 -1419.321)" fill="#fff"/>
  <g id="Group_4" data-name="Group 4" transform="translate(94.688 0.159)">
    <path id="Path_17" data-name="Path 17" d="M6724.1,1449.759a40.411,40.411,0,0,1,1.71-4.979,7.917,7.917,0,0,0-1.2.356,38.8,38.8,0,0,1-2.745,5.742,2.727,2.727,0,0,1-1.635,1.022,5.44,5.44,0,0,1-.825.113c-.193.013-.4.021-.63.021,0,.442-.011.867-.011.867h8.5v-.873c-1.525,0-1.887-.172-2.4-.56A2.014,2.014,0,0,1,6724.1,1449.759Z" transform="translate(-6718.771 -1427.478)" fill="#fff"/>
    <path id="Path_18" data-name="Path 18" d="M6744,1403.867l-.124-.29-.174-.414h-.719l-.747,1.792-.448,1.07-1.3,3.109-.362.865-2.555,6.12a8.068,8.068,0,0,1,.967-.064h.014l1.7-4.122.149-.362,1.549-3.75s2.345,5.711,4.3,10.442a8.118,8.118,0,0,0,3.848.093Z" transform="translate(-6729.776 -1403.163)" fill="#fff"/>
  </g>
</svg>
